<?xml version="1.0" standalone="no"?>
<!DOCTYPE svg PUBLIC "-//W3C//DTD SVG 20010904//EN"
 "http://www.w3.org/TR/2001/REC-SVG-20010904/DTD/svg10.dtd">
<svg version="1.0" xmlns="http://www.w3.org/2000/svg"
 width="225.000000pt" height="225.000000pt" viewBox="0 0 225.000000 225.000000"
 preserveAspectRatio="xMidYMid meet">
<metadata>
Created by potrace 1.14, written by Peter Selinger 2001-2017
</metadata>
<g transform="translate(0.000000,225.000000) scale(0.100000,-0.100000)"
fill="#000000" stroke="none">
<path d="M1413 1803 c20 -12 3 -24 -30 -21 l-38 3 1 -205 2 -205 25 -3 c15 -2
27 -11 30 -23 3 -13 14 -19 31 -19 19 0 29 -7 36 -26 9 -22 13 -24 25 -14 8 7
15 21 15 31 0 22 46 27 52 7 4 -10 13 -9 45 1 29 10 45 10 60 3 20 -11 43 0
43 20 0 4 -55 9 -122 11 -104 3 -100 4 25 2 97 -1 147 3 148 9 2 37 12 63 26
74 11 7 12 12 4 12 -8 0 -10 8 -7 23 3 12 3 16 0 9 -3 -6 -10 -10 -15 -7 -5 4
-6 -1 -3 -9 8 -20 -5 -20 -34 -1 -20 15 -21 15 -15 -2 6 -16 4 -16 -16 1 l-22
20 16 -30 c8 -16 15 -32 15 -36 0 -5 -70 -8 -155 -8 l-155 0 0 153 c0 85 -3
157 -7 161 -15 14 -10 35 7 33 12 -1 17 -8 15 -24 -3 -26 5 -29 23 -11 9 9 12
7 13 -12 1 -17 3 -20 6 -7 4 15 18 17 122 17 l119 0 6 -31 c3 -17 6 -69 6
-116 0 -48 4 -82 9 -79 5 4 12 0 15 -6 5 -11 7 -11 12 0 3 6 10 10 15 6 5 -3
9 51 9 130 0 178 10 169 -184 165 -83 -2 -158 -1 -166 2 -8 3 -12 4 -7 2z"/>
<path d="M477 1787 c-6 -17 2 -410 9 -417 3 -3 95 -7 204 -9 224 -4 207 -10
212 81 2 27 7 48 12 48 6 0 5 5 -2 12 -8 8 -12 54 -12 143 0 89 -4 135 -12
143 -18 18 -404 17 -411 -1z m357 -88 c10 -50 7 -188 -4 -210 -7 -13 -7 -19 0
-19 5 0 10 -11 10 -25 l0 -25 -155 0 -156 0 2 155 1 155 148 0 148 0 6 -31z"/>
<path d="M600 1580 l0 -90 85 0 85 0 0 90 0 90 -85 0 -85 0 0 -90z"/>
<path d="M1395 1740 c3 -5 8 -10 11 -10 2 0 4 5 4 10 0 6 -5 10 -11 10 -5 0
-7 -4 -4 -10z"/>
<path d="M983 1723 c-7 -2 -13 -13 -13 -24 0 -14 7 -19 26 -19 20 0 25 4 22
22 -3 23 -15 30 -35 21z"/>
<path d="M1157 1723 c-4 -3 -6 -43 -6 -87 1 -45 3 -73 6 -63 2 9 11 17 18 17
7 0 16 -8 18 -17 3 -10 5 7 6 38 1 59 18 86 46 76 19 -8 31 11 16 26 -9 9 -14
8 -21 -3 -8 -13 -10 -12 -10 3 0 13 -8 17 -33 17 -19 0 -37 -3 -40 -7z m33
-87 c0 -8 -4 -17 -9 -21 -12 -7 -24 12 -16 25 9 15 25 12 25 -4z"/>
<path d="M1037 1663 c-4 -3 -7 -19 -7 -35 0 -28 -2 -29 -32 -23 -26 5 -29 4
-15 -5 24 -15 22 -34 -4 -27 -17 5 -18 3 -8 -9 8 -10 27 -14 58 -12 l46 3 6
48 c4 39 2 50 -12 58 -21 11 -24 11 -32 2z m23 -89 c0 -8 -7 -14 -15 -14 -15
0 -21 21 -9 33 10 9 24 -2 24 -19z"/>
<path d="M1097 1543 c-4 -3 -7 -19 -7 -35 0 -15 -6 -29 -12 -29 -7 -1 -33 -2
-58 -3 l-45 -1 -1 -56 c-1 -42 2 -56 12 -56 8 0 17 12 20 26 11 50 13 52 46
49 33 -3 33 -4 36 -60 3 -61 6 -64 67 -70 17 -1 35 1 42 5 19 12 3 37 -23 37
-43 0 -57 69 -17 84 27 11 55 -3 48 -24 -3 -10 -2 -21 3 -24 6 -3 9 1 8 10 0
10 8 18 23 20 21 4 23 1 17 -23 -5 -22 -4 -24 4 -11 13 22 -1 90 -20 96 -12 3
-13 2 -1 -6 16 -12 6 -32 -16 -32 -10 0 -14 6 -10 20 4 17 0 20 -28 20 -30 0
-33 3 -39 35 -7 33 -31 47 -49 28z"/>
<path d="M870 1291 c14 -5 20 -9 13 -10 -7 -1 -10 -7 -7 -15 3 -8 -2 -17 -13
-20 -10 -3 -5 -4 10 -2 22 3 30 -2 37 -20 16 -40 3 -54 -49 -54 -33 0 -42 -3
-31 -10 8 -5 12 -10 8 -10 -5 0 0 -8 10 -18 13 -13 27 -16 62 -12 l45 5 -3 40
c-5 72 4 87 46 83 32 -3 38 -7 42 -33 5 -29 7 -30 60 -31 36 -1 46 0 30 5 -29
8 -34 37 -6 34 11 -1 15 2 9 8 -13 13 -48 -2 -48 -21 0 -8 -8 -16 -17 -18 -22
-4 -24 21 -3 38 8 7 15 23 15 36 0 23 -2 24 -84 24 -46 0 -99 2 -117 5 -29 4
-30 3 -9 -4z m68 -23 c-3 -7 -11 -13 -18 -13 -7 0 -15 6 -17 13 -3 7 4 12 17
12 13 0 20 -5 18 -12z"/>
<path d="M1232 1291 c-8 -5 -12 -17 -10 -27 3 -21 43 -30 84 -20 27 7 33 40 8
50 -22 9 -67 7 -82 -3z"/>
<path d="M1407 1294 c-4 -4 -7 -18 -7 -30 0 -17 -7 -23 -27 -26 -27 -3 -28 -5
-28 -58 0 -48 2 -55 20 -55 14 0 21 8 23 28 l3 27 94 0 c92 0 95 -1 101 -24 9
-36 -2 -46 -51 -46 -69 0 -75 -5 -75 -65 0 -51 -1 -54 -27 -57 -25 -3 -28 -7
-31 -48 -2 -24 -9 -48 -15 -52 -9 -6 -9 -8 1 -8 7 0 10 -5 6 -12 -5 -7 -3 -8
6 -3 7 4 16 2 21 -6 7 -12 9 -11 9 1 0 13 1 13 10 0 11 -17 10 -19 13 45 l2
30 65 0 c64 0 65 0 68 -29 4 -36 -13 -48 -56 -41 -61 11 -72 1 -72 -66 0 -59
0 -59 -30 -59 -26 0 -30 -3 -30 -29 0 -36 -15 -40 -110 -33 -71 5 -72 5 -68
-19 2 -18 10 -25 31 -27 24 -3 27 -8 27 -38 0 -34 -1 -35 -29 -29 -16 3 -32 2
-35 -3 -3 -6 2 -8 13 -5 14 4 18 -1 17 -19 -1 -17 -6 -22 -21 -20 -14 3 -17 0
-10 -7 16 -16 55 -2 55 20 0 12 7 19 20 19 23 0 26 -20 8 -39 -11 -10 13 -11
122 -7 74 3 138 5 143 5 4 1 7 12 7 25 0 21 -6 25 -32 28 -29 3 -33 6 -30 31
3 25 1 27 -33 27 -35 0 -36 1 -34 38 2 34 5 37 33 37 26 0 31 4 34 28 2 15 9
28 15 28 7 1 19 2 27 3 8 0 17 14 20 31 5 27 8 30 38 27 31 -3 32 -2 32 32 0
40 -1 40 32 27 15 -6 27 -5 33 3 25 27 -5 64 -48 58 -28 -4 -29 -3 -22 26 6
29 4 31 -27 34 -29 3 -33 6 -33 33 0 27 4 30 34 33 31 3 33 6 27 32 -5 27 -3
29 27 32 27 2 33 8 35 31 3 24 8 28 30 27 45 -3 48 -1 48 30 0 21 -4 29 -13
26 -7 -3 -13 0 -13 6 0 7 -5 6 -15 -2 -19 -16 -32 -5 -37 30 -2 19 -10 26 -30
28 -25 3 -28 0 -28 -26 0 -29 -14 -42 -45 -42 -7 0 -16 16 -19 36 -6 29 -11
35 -29 32 -13 -2 -23 -12 -27 -28 -5 -20 -12 -25 -35 -25 -23 0 -30 5 -35 25
-6 24 -29 37 -43 24z m-12 -698 c0 -32 -23 -53 -49 -43 -11 4 -16 18 -16 42 0
35 1 36 33 33 28 -3 32 -7 32 -32z"/>
<path d="M540 1160 c-6 -12 -9 -28 -6 -36 4 -10 -3 -14 -24 -14 -30 0 -30 -1
-30 -54 0 -62 5 -66 85 -66 69 0 85 7 85 36 0 13 3 24 8 25 55 6 62 4 62 -16
0 -12 -6 -27 -12 -34 -11 -11 -10 -13 5 -8 10 4 17 1 17 -6 0 -8 4 -6 10 3 6
10 10 11 10 3 0 -7 5 -13 11 -13 5 0 7 5 3 12 -5 7 -2 9 9 5 17 -6 32 19 17
28 -6 4 -10 30 -10 60 0 66 -7 85 -31 85 -13 0 -19 -7 -19 -24 0 -32 -4 -33
-117 -27 -16 1 -23 8 -25 28 -4 35 -32 42 -48 13z"/>
<path d="M1156 1161 c-3 -5 -3 -17 0 -26 5 -12 18 -15 58 -13 43 3 51 6 51 23
0 17 -8 20 -52 23 -28 2 -54 -1 -57 -7z"/>
<path d="M972 1088 c3 -25 36 -37 48 -17 13 20 0 39 -27 39 -20 0 -24 -4 -21
-22z"/>
<path d="M1280 1084 c0 -21 4 -25 23 -22 14 2 23 11 25 26 3 18 -1 22 -22 22
-21 0 -26 -5 -26 -26z"/>
<path d="M1706 1010 c3 -30 7 -61 9 -67 7 -22 42 -15 49 10 9 34 7 107 -3 107
-5 0 -7 -9 -4 -20 4 -17 1 -20 -18 -17 -12 2 -26 12 -30 23 -5 10 -6 -6 -3
-36z m47 -25 c1 -5 -6 -11 -15 -13 -11 -2 -18 3 -18 13 0 17 30 18 33 0z"/>
<path d="M850 1027 c0 -30 6 -36 31 -30 12 3 19 14 19 29 0 19 -5 24 -25 24
-20 0 -25 -5 -25 -23z"/>
<path d="M1025 1030 c-3 -11 -3 -24 0 -30 4 -6 -6 -10 -24 -10 -31 0 -31 0
-31 -54 0 -30 4 -56 10 -58 5 -1 43 -2 84 0 l75 4 3 56 c3 54 4 57 30 57 14 0
30 4 34 8 5 4 1 5 -9 1 -13 -4 -17 -1 -17 14 0 11 8 23 18 25 9 3 -24 5 -75 6
-83 1 -92 -1 -98 -19z m127 -5 c0 -5 -5 -11 -11 -13 -6 -2 -11 4 -11 13 0 9 5
15 11 13 6 -2 11 -8 11 -13z"/>
<path d="M1340 1025 c0 -21 5 -25 31 -25 24 0 30 3 25 16 -3 9 -6 20 -6 25 0
5 -11 9 -25 9 -20 0 -25 -5 -25 -25z"/>
<path d="M1324 992 c12 -19 -3 -35 -20 -21 -8 6 -14 8 -14 3 0 -5 -5 -2 -10 6
-7 11 -10 7 -10 -17 0 -27 -4 -33 -22 -33 -13 0 -27 -4 -33 -8 -14 -10 -17
-32 -4 -32 5 0 7 -5 3 -11 -5 -8 1 -10 19 -7 30 6 42 -5 49 -43 4 -22 2 -25
-23 -21 -20 3 -30 -2 -39 -17 -6 -12 -8 -25 -6 -30 3 -5 46 -9 96 -9 l90 1 0
28 c0 26 -3 29 -33 29 l-34 0 2 90 c1 51 -3 94 -8 97 -6 3 -7 1 -3 -5z m-4
-67 c0 -8 -7 -15 -15 -15 -8 0 -15 7 -15 15 0 8 7 15 15 15 8 0 15 -7 15 -15z"/>
<path d="M610 933 c-68 -2 -128 -7 -132 -11 -4 -4 -7 -52 -7 -107 1 -55 0
-145 -1 -201 -1 -87 1 -102 15 -108 9 -3 103 -6 208 -6 206 -1 207 -1 207 55
0 17 5 36 12 43 8 8 9 12 1 12 -8 0 -13 47 -15 151 -4 178 -5 180 -102 177
-34 -1 -117 -4 -186 -5z m224 -124 c3 -34 6 -83 6 -108 0 -26 6 -53 13 -61 10
-12 9 -12 -5 -1 -15 11 -18 11 -18 -3 0 -9 -5 -16 -12 -16 -9 0 -9 -3 0 -12 7
-7 12 -20 12 -30 0 -17 -12 -18 -150 -18 l-150 0 0 155 0 155 149 0 148 0 7
-61z"/>
<path d="M600 720 l0 -90 85 0 85 0 0 90 0 90 -85 0 -85 0 0 -90z"/>
<path d="M1161 861 c-19 -12 -6 -41 18 -41 26 0 36 17 21 35 -14 17 -20 18
-39 6z"/>
<path d="M1102 801 c-20 -12 -10 -46 14 -49 25 -4 40 24 23 44 -13 16 -19 17
-37 5z"/>
<path d="M1161 740 c-17 -10 -10 -44 9 -47 23 -4 41 12 35 30 -8 19 -28 28
-44 17z"/>
<path d="M1044 725 c-8 -19 3 -35 24 -34 14 0 13 2 -3 8 l-20 8 20 5 c17 5 18
6 2 7 -10 0 -15 6 -12 11 3 6 4 10 0 10 -3 0 -8 -7 -11 -15z"/>
<path d="M1603 653 c9 -2 17 -11 17 -20 0 -9 -6 -13 -15 -9 -8 3 -15 1 -15 -3
0 -5 -3 -18 -6 -28 -5 -16 -4 -16 5 -1 6 9 20 15 31 13 16 -3 20 2 20 26 0 25
-3 29 -27 28 -17 -1 -21 -3 -10 -6z"/>
<path d="M1650 535 c0 -20 5 -25 25 -25 20 0 25 5 25 25 0 20 -5 25 -25 25
-20 0 -25 -5 -25 -25z"/>
<path d="M970 521 c0 -15 16 -22 34 -15 25 9 19 24 -9 24 -14 0 -25 -4 -25 -9z"/>
<path d="M1100 516 c6 -8 18 -12 26 -9 23 9 16 23 -12 23 -22 0 -24 -2 -14
-14z"/>
<path d="M1180 415 c0 -8 5 -15 10 -15 6 0 10 7 10 15 0 8 -4 15 -10 15 -5 0
-10 -7 -10 -15z"/>
<path d="M1220 390 c-18 -11 -4 -42 17 -38 10 2 19 10 21 19 4 19 -19 31 -38
19z"/>
<path d="M1160 359 c0 -5 5 -7 10 -4 6 3 10 8 10 11 0 2 -4 4 -10 4 -5 0 -10
-5 -10 -11z"/>
</g>
</svg>
